<svg width="40" height="40" viewBox="0 0 40 40" fill="none" xmlns="http://www.w3.org/2000/svg">
<circle cx="20" cy="20" r="20" fill="#6C63FF"/>
<path d="M27.3125 13C28.2441 13 29 13.7835 29 14.75C29 15.3005 28.7504 15.8182 28.325 16.15L20.675 22.1C20.2742 22.4099 19.7258 22.4099 19.325 22.1L11.675 16.15C11.2501 15.8182 11 15.3005 11 14.75C11 13.7835 11.7555 13 12.6875 13H27.3125ZM18.65 23.0333C19.4516 23.6568 20.5484 23.6568 21.35 23.0333L29 17.0833V24.6667C29 25.9536 27.991 27 26.75 27H13.25C12.0072 27 11 25.9536 11 24.6667V17.0833L18.65 23.0333Z" fill="#E9EC49"/>
</svg>
