<svg width="40" height="40" viewBox="0 0 40 40" fill="none" xmlns="http://www.w3.org/2000/svg">
<circle cx="20" cy="20" r="20" fill="#6C63FF"/>
<path d="M16.3585 26.7144C16.3585 26.8053 16.2565 26.8781 16.1278 26.8781C15.9815 26.8918 15.8794 26.819 15.8794 26.7144C15.8794 26.6234 15.9815 26.5506 16.1101 26.5506C16.2431 26.537 16.3585 26.6097 16.3585 26.7144ZM14.979 26.5097C14.948 26.6006 15.0367 26.7053 15.1698 26.7326C15.2851 26.7781 15.4181 26.7326 15.4448 26.6416C15.4714 26.5506 15.3871 26.446 15.254 26.405C15.1387 26.3732 15.0101 26.4187 14.979 26.5097ZM16.9395 26.4323C16.8109 26.4642 16.7222 26.5506 16.7355 26.6552C16.7488 26.7462 16.8641 26.8054 16.9972 26.7735C17.1258 26.7417 17.2145 26.6552 17.2012 26.5642C17.1879 26.4778 17.0681 26.4187 16.9395 26.4323ZM19.8581 9C13.706 9 9 13.7902 9 20.0999C9 25.1449 12.096 29.4621 16.5181 30.9815C17.0859 31.0861 17.2855 30.7267 17.2855 30.431C17.2855 30.149 17.2722 28.5932 17.2722 27.6378C17.2722 27.6378 14.1673 28.3202 13.5153 26.2822C13.5153 26.2822 13.0097 24.9584 12.2823 24.6172C12.2823 24.6172 11.2665 23.903 12.3532 23.9166C12.3532 23.9166 13.4577 24.0076 14.0653 25.0903C15.0367 26.8463 16.6645 26.3413 17.2988 26.0411C17.4008 25.3132 17.6891 24.8083 18.0085 24.508C15.529 24.226 13.0274 23.8575 13.0274 19.4812C13.0274 18.2302 13.3645 17.6024 14.0742 16.8018C13.9589 16.5061 13.5819 15.2869 14.1895 13.7129C15.1165 13.4172 17.25 14.9412 17.25 14.9412C18.1371 14.6864 19.0907 14.5545 20.0355 14.5545C20.9802 14.5545 21.9339 14.6864 22.821 14.9412C22.821 14.9412 24.9544 13.4127 25.8815 13.7129C26.4891 15.2915 26.1121 16.5061 25.9968 16.8018C26.7065 17.607 27.1411 18.2348 27.1411 19.4812C27.1411 23.8712 24.5286 24.2214 22.0492 24.508C22.4573 24.8674 22.8032 25.5498 22.8032 26.6188C22.8032 28.1519 22.7899 30.0489 22.7899 30.4219C22.7899 30.7176 22.994 31.077 23.5573 30.9724C27.9927 29.4621 31 25.1449 31 20.0999C31 13.7902 26.0101 9 19.8581 9ZM13.3113 24.69C13.2536 24.7355 13.2669 24.8401 13.3423 24.9266C13.4133 24.9993 13.5153 25.0312 13.573 24.972C13.6306 24.9266 13.6173 24.8219 13.5419 24.7355C13.471 24.6627 13.369 24.6309 13.3113 24.69ZM12.8323 24.3215C12.8012 24.3807 12.8456 24.4534 12.9343 24.4989C13.0052 24.5444 13.094 24.5308 13.125 24.4671C13.156 24.408 13.1117 24.3352 13.023 24.2897C12.9343 24.2624 12.8633 24.276 12.8323 24.3215ZM14.2694 25.941C14.1984 26.0002 14.225 26.1366 14.327 26.2231C14.429 26.3277 14.5577 26.3413 14.6153 26.2686C14.673 26.2094 14.6464 26.0729 14.5577 25.9865C14.4601 25.8819 14.327 25.8682 14.2694 25.941ZM13.7637 25.2723C13.6927 25.3178 13.6927 25.4361 13.7637 25.5407C13.8347 25.6453 13.9544 25.6908 14.0121 25.6453C14.0831 25.5862 14.0831 25.4679 14.0121 25.3633C13.95 25.2586 13.8347 25.2132 13.7637 25.2723Z" fill="#E9EC49"/>
</svg>
